<svg width="366" height="140" viewBox="0 0 366 140" fill="none" xmlns="http://www.w3.org/2000/svg">
<rect width="183" height="20" fill="white" fill-opacity="0.9"/>
<path d="M7.83105 13H6.89355V5.89062H7.83105V13ZM12.4844 11.5986C12.4844 11.3545 12.3916 11.1657 12.2061 11.0322C12.0238 10.8955 11.7031 10.7783 11.2441 10.6807C10.7884 10.583 10.4255 10.4658 10.1553 10.3291C9.88835 10.1924 9.68978 10.0296 9.55957 9.84082C9.43262 9.65202 9.36914 9.42741 9.36914 9.16699C9.36914 8.73405 9.55143 8.36784 9.91602 8.06836C10.2839 7.76888 10.7526 7.61914 11.3223 7.61914C11.9212 7.61914 12.4062 7.77376 12.7773 8.08301C13.1517 8.39225 13.3389 8.78776 13.3389 9.26953H12.4307C12.4307 9.02214 12.3249 8.80892 12.1133 8.62988C11.9049 8.45085 11.6413 8.36133 11.3223 8.36133C10.9935 8.36133 10.7363 8.43294 10.5508 8.57617C10.3652 8.7194 10.2725 8.90658 10.2725 9.1377C10.2725 9.35579 10.3587 9.52018 10.5312 9.63086C10.7038 9.74154 11.0146 9.84733 11.4639 9.94824C11.9163 10.0492 12.2826 10.1696 12.5625 10.3096C12.8424 10.4495 13.0492 10.6188 13.1826 10.8174C13.3193 11.0127 13.3877 11.252 13.3877 11.5352C13.3877 12.0072 13.1989 12.3864 12.8213 12.6729C12.4437 12.9561 11.9538 13.0977 11.3516 13.0977C10.9284 13.0977 10.554 13.0228 10.2285 12.873C9.90299 12.7233 9.64746 12.515 9.46191 12.248C9.27962 11.9779 9.18848 11.6865 9.18848 11.374H10.0918C10.1081 11.6768 10.2285 11.9176 10.4531 12.0967C10.681 12.2725 10.9805 12.3604 11.3516 12.3604C11.6934 12.3604 11.9668 12.292 12.1719 12.1553C12.3802 12.0153 12.4844 11.8298 12.4844 11.5986ZM17.6406 11.5986C17.6406 11.3545 17.5479 11.1657 17.3623 11.0322C17.18 10.8955 16.8594 10.7783 16.4004 10.6807C15.9447 10.583 15.5817 10.4658 15.3115 10.3291C15.0446 10.1924 14.846 10.0296 14.7158 9.84082C14.5889 9.65202 14.5254 9.42741 14.5254 9.16699C14.5254 8.73405 14.7077 8.36784 15.0723 8.06836C15.4401 7.76888 15.9089 7.61914 16.4785 7.61914C17.0775 7.61914 17.5625 7.77376 17.9336 8.08301C18.3079 8.39225 18.4951 8.78776 18.4951 9.26953H17.5869C17.5869 9.02214 17.4811 8.80892 17.2695 8.62988C17.0612 8.45085 16.7975 8.36133 16.4785 8.36133C16.1497 8.36133 15.8926 8.43294 15.707 8.57617C15.5215 8.7194 15.4287 8.90658 15.4287 9.1377C15.4287 9.35579 15.515 9.52018 15.6875 9.63086C15.86 9.74154 16.1709 9.84733 16.6201 9.94824C17.0726 10.0492 17.4388 10.1696 17.7188 10.3096C17.9987 10.4495 18.2054 10.6188 18.3389 10.8174C18.4756 11.0127 18.5439 11.252 18.5439 11.5352C18.5439 12.0072 18.3551 12.3864 17.9775 12.6729C17.5999 12.9561 17.11 13.0977 16.5078 13.0977C16.0846 13.0977 15.7103 13.0228 15.3848 12.873C15.0592 12.7233 14.8037 12.515 14.6182 12.248C14.4359 11.9779 14.3447 11.6865 14.3447 11.374H15.248C15.2643 11.6768 15.3848 11.9176 15.6094 12.0967C15.8372 12.2725 16.1367 12.3604 16.5078 12.3604C16.8496 12.3604 17.123 12.292 17.3281 12.1553C17.5365 12.0153 17.6406 11.8298 17.6406 11.5986ZM22.9824 12.4775C22.6309 12.891 22.1149 13.0977 21.4346 13.0977C20.8714 13.0977 20.4417 12.9349 20.1455 12.6094C19.8525 12.2806 19.7044 11.7956 19.7012 11.1543V7.7168H20.6045V11.1299C20.6045 11.9307 20.93 12.3311 21.5811 12.3311C22.2712 12.3311 22.7301 12.0739 22.958 11.5596V7.7168H23.8613V13H23.002L22.9824 12.4775ZM26.2197 13H25.3164V7.7168H26.2197V13ZM25.2432 6.31543C25.2432 6.16895 25.2871 6.04525 25.375 5.94434C25.4661 5.84342 25.5996 5.79297 25.7754 5.79297C25.9512 5.79297 26.0846 5.84342 26.1758 5.94434C26.2669 6.04525 26.3125 6.16895 26.3125 6.31543C26.3125 6.46191 26.2669 6.58398 26.1758 6.68164C26.0846 6.7793 25.9512 6.82812 25.7754 6.82812C25.5996 6.82812 25.4661 6.7793 25.375 6.68164C25.2871 6.58398 25.2432 6.46191 25.2432 6.31543ZM28.5244 7.7168L28.5537 8.38086C28.9574 7.87305 29.4847 7.61914 30.1357 7.61914C31.2523 7.61914 31.8154 8.24902 31.8252 9.50879V13H30.9219V9.50391C30.9186 9.12305 30.8307 8.84147 30.6582 8.65918C30.4889 8.47689 30.2236 8.38574 29.8623 8.38574C29.5693 8.38574 29.3122 8.46387 29.0908 8.62012C28.8695 8.77637 28.6969 8.98145 28.5732 9.23535V13H27.6699V7.7168H28.5244ZM32.9727 10.3145C32.9727 9.49089 33.1631 8.83659 33.5439 8.35156C33.9248 7.86328 34.4294 7.61914 35.0576 7.61914C35.7021 7.61914 36.2051 7.84701 36.5664 8.30273L36.6104 7.7168H37.4355V12.873C37.4355 13.5566 37.2321 14.0954 36.8252 14.4893C36.4215 14.8831 35.8779 15.0801 35.1943 15.0801C34.8135 15.0801 34.4408 14.9987 34.0762 14.8359C33.7116 14.6732 33.4333 14.4502 33.2412 14.167L33.71 13.625C34.0973 14.1035 34.571 14.3428 35.1309 14.3428C35.5703 14.3428 35.9121 14.2191 36.1562 13.9717C36.4036 13.7243 36.5273 13.376 36.5273 12.9268V12.4727C36.166 12.8893 35.6729 13.0977 35.0479 13.0977C34.4294 13.0977 33.9281 12.8486 33.5439 12.3506C33.1631 11.8525 32.9727 11.1738 32.9727 10.3145ZM33.8809 10.417C33.8809 11.0127 34.0029 11.4814 34.2471 11.8232C34.4912 12.1618 34.833 12.3311 35.2725 12.3311C35.8421 12.3311 36.2604 12.0723 36.5273 11.5547V9.14258C36.2507 8.63802 35.8356 8.38574 35.2822 8.38574C34.8428 8.38574 34.4993 8.55664 34.252 8.89844C34.0046 9.24023 33.8809 9.74642 33.8809 10.417ZM46.6543 10.7441C46.5664 11.4961 46.2881 12.0771 45.8193 12.4873C45.3538 12.8942 44.7337 13.0977 43.959 13.0977C43.1191 13.0977 42.4453 12.7965 41.9375 12.1943C41.4329 11.5921 41.1807 10.7865 41.1807 9.77734V9.09375C41.1807 8.43294 41.2979 7.85189 41.5322 7.35059C41.7699 6.84928 42.1051 6.46517 42.5381 6.19824C42.971 5.92806 43.4723 5.79297 44.042 5.79297C44.7972 5.79297 45.4027 6.00456 45.8584 6.42773C46.3141 6.84766 46.5794 7.43034 46.6543 8.17578H45.7119C45.6305 7.60938 45.4531 7.19922 45.1797 6.94531C44.9095 6.69141 44.5303 6.56445 44.042 6.56445C43.443 6.56445 42.9727 6.78581 42.6309 7.22852C42.2923 7.67122 42.123 8.30111 42.123 9.11816V9.80664C42.123 10.5781 42.2842 11.1917 42.6064 11.6475C42.9287 12.1032 43.3796 12.3311 43.959 12.3311C44.4798 12.3311 44.8786 12.2139 45.1553 11.9795C45.4352 11.7419 45.6208 11.3301 45.7119 10.7441H46.6543ZM47.5576 10.3096C47.5576 9.79199 47.6585 9.3265 47.8604 8.91309C48.0654 8.49967 48.3486 8.18066 48.71 7.95605C49.0745 7.73145 49.4896 7.61914 49.9551 7.61914C50.6745 7.61914 51.2555 7.86816 51.6982 8.36621C52.1442 8.86426 52.3672 9.52669 52.3672 10.3535V10.417C52.3672 10.9313 52.2679 11.3936 52.0693 11.8037C51.874 12.2106 51.5924 12.528 51.2246 12.7559C50.86 12.9837 50.4401 13.0977 49.9648 13.0977C49.2487 13.0977 48.6676 12.8486 48.2217 12.3506C47.779 11.8525 47.5576 11.1934 47.5576 10.373V10.3096ZM48.4658 10.417C48.4658 11.0029 48.6009 11.4733 48.8711 11.8281C49.1445 12.1829 49.5091 12.3604 49.9648 12.3604C50.4238 12.3604 50.7884 12.1813 51.0586 11.8232C51.3288 11.4619 51.4639 10.9574 51.4639 10.3096C51.4639 9.73014 51.3255 9.26139 51.0488 8.90332C50.7754 8.54199 50.4108 8.36133 49.9551 8.36133C49.5091 8.36133 49.1494 8.53874 48.876 8.89355C48.6025 9.24837 48.4658 9.75618 48.4658 10.417ZM56.7617 12.4775C56.4102 12.891 55.8942 13.0977 55.2139 13.0977C54.6507 13.0977 54.221 12.9349 53.9248 12.6094C53.6318 12.2806 53.4837 11.7956 53.4805 11.1543V7.7168H54.3838V11.1299C54.3838 11.9307 54.7093 12.3311 55.3604 12.3311C56.0505 12.3311 56.5094 12.0739 56.7373 11.5596V7.7168H57.6406V13H56.7812L56.7617 12.4775ZM59.8721 7.7168L59.9014 8.38086C60.305 7.87305 60.8324 7.61914 61.4834 7.61914C62.5999 7.61914 63.1631 8.24902 63.1729 9.50879V13H62.2695V9.50391C62.2663 9.12305 62.1784 8.84147 62.0059 8.65918C61.8366 8.47689 61.5713 8.38574 61.21 8.38574C60.917 8.38574 60.6598 8.46387 60.4385 8.62012C60.2171 8.77637 60.0446 8.98145 59.9209 9.23535V13H59.0176V7.7168H59.8721ZM65.7607 6.4375V7.7168H66.7471V8.41504H65.7607V11.6914C65.7607 11.903 65.8047 12.0625 65.8926 12.1699C65.9805 12.2741 66.1302 12.3262 66.3418 12.3262C66.446 12.3262 66.5892 12.3066 66.7715 12.2676V13C66.5339 13.0651 66.3027 13.0977 66.0781 13.0977C65.6745 13.0977 65.3701 12.9756 65.165 12.7314C64.96 12.4873 64.8574 12.1406 64.8574 11.6914V8.41504H63.8955V7.7168H64.8574V6.4375H65.7607ZM70.3604 8.52734C70.2236 8.50456 70.0755 8.49316 69.916 8.49316C69.3236 8.49316 68.9215 8.74544 68.71 9.25V13H67.8066V7.7168H68.6855L68.7002 8.32715C68.9964 7.85514 69.4163 7.61914 69.96 7.61914C70.1357 7.61914 70.2692 7.64193 70.3604 7.6875V8.52734ZM73.0117 11.6768L74.2422 7.7168H75.209L73.085 13.8154C72.7562 14.6943 72.2337 15.1338 71.5176 15.1338L71.3467 15.1191L71.0098 15.0557V14.3232L71.2539 14.3428C71.5599 14.3428 71.7975 14.2809 71.9668 14.1572C72.1393 14.0335 72.2809 13.8073 72.3916 13.4785L72.5918 12.9414L70.707 7.7168H71.6934L73.0117 11.6768Z" fill="black"/>
<line y1="19.75" x2="183" y2="19.75" stroke="#B1ACAC" stroke-width="0.5"/>
<line x1="182.53" y1="1.09278e-08" x2="182.53" y2="20" stroke="#B1ABAB" stroke-width="0.5"/>
<rect y="20" width="183" height="20" fill="#E1E1E1"/>
<path d="M12.0547 30.7441C11.9668 31.4961 11.6885 32.0771 11.2197 32.4873C10.7542 32.8942 10.1341 33.0977 9.35938 33.0977C8.51953 33.0977 7.8457 32.7965 7.33789 32.1943C6.83333 31.5921 6.58105 30.7865 6.58105 29.7773V29.0938C6.58105 28.4329 6.69824 27.8519 6.93262 27.3506C7.17025 26.8493 7.50553 26.4652 7.93848 26.1982C8.37142 25.9281 8.87272 25.793 9.44238 25.793C10.1976 25.793 10.8031 26.0046 11.2588 26.4277C11.7145 26.8477 11.9798 27.4303 12.0547 28.1758H11.1123C11.0309 27.6094 10.8535 27.1992 10.5801 26.9453C10.3099 26.6914 9.93066 26.5645 9.44238 26.5645C8.84342 26.5645 8.37305 26.7858 8.03125 27.2285C7.69271 27.6712 7.52344 28.3011 7.52344 29.1182V29.8066C7.52344 30.5781 7.68457 31.1917 8.00684 31.6475C8.3291 32.1032 8.77995 32.3311 9.35938 32.3311C9.88021 32.3311 10.279 32.2139 10.5557 31.9795C10.8356 31.7419 11.0212 31.3301 11.1123 30.7441H12.0547ZM12.958 30.3096C12.958 29.792 13.0589 29.3265 13.2607 28.9131C13.4658 28.4997 13.749 28.1807 14.1104 27.9561C14.4749 27.7314 14.89 27.6191 15.3555 27.6191C16.0749 27.6191 16.6559 27.8682 17.0986 28.3662C17.5446 28.8643 17.7676 29.5267 17.7676 30.3535V30.417C17.7676 30.9313 17.6683 31.3936 17.4697 31.8037C17.2744 32.2106 16.9928 32.528 16.625 32.7559C16.2604 32.9837 15.8405 33.0977 15.3652 33.0977C14.6491 33.0977 14.068 32.8486 13.6221 32.3506C13.1794 31.8525 12.958 31.1934 12.958 30.373V30.3096ZM13.8662 30.417C13.8662 31.0029 14.0013 31.4733 14.2715 31.8281C14.5449 32.1829 14.9095 32.3604 15.3652 32.3604C15.8242 32.3604 16.1888 32.1813 16.459 31.8232C16.7292 31.4619 16.8643 30.9574 16.8643 30.3096C16.8643 29.7301 16.7259 29.2614 16.4492 28.9033C16.1758 28.542 15.8112 28.3613 15.3555 28.3613C14.9095 28.3613 14.5498 28.5387 14.2764 28.8936C14.0029 29.2484 13.8662 29.7562 13.8662 30.417ZM19.75 27.7168L19.7744 28.3027C20.1618 27.847 20.6842 27.6191 21.3418 27.6191C22.0807 27.6191 22.5837 27.9023 22.8506 28.4688C23.0264 28.2148 23.2542 28.0098 23.5342 27.8535C23.8174 27.6973 24.151 27.6191 24.5352 27.6191C25.694 27.6191 26.2832 28.2327 26.3027 29.46V33H25.3994V29.5137C25.3994 29.1361 25.3132 28.8545 25.1406 28.6689C24.9681 28.4801 24.6784 28.3857 24.2715 28.3857C23.9362 28.3857 23.6579 28.4867 23.4365 28.6885C23.2152 28.887 23.0866 29.1556 23.0508 29.4941V33H22.1426V29.5381C22.1426 28.7699 21.7666 28.3857 21.0146 28.3857C20.4222 28.3857 20.0169 28.638 19.7988 29.1426V33H18.8955V27.7168H19.75ZM32.1328 30.417C32.1328 31.221 31.9489 31.8688 31.5811 32.3604C31.2132 32.8519 30.7152 33.0977 30.0869 33.0977C29.4456 33.0977 28.9411 32.8942 28.5732 32.4873V35.0312H27.6699V27.7168H28.4951L28.5391 28.3027C28.9069 27.847 29.418 27.6191 30.0723 27.6191C30.707 27.6191 31.2083 27.8584 31.5762 28.3369C31.9473 28.8154 32.1328 29.4811 32.1328 30.334V30.417ZM31.2295 30.3145C31.2295 29.7188 31.1025 29.2484 30.8486 28.9033C30.5947 28.5583 30.2464 28.3857 29.8037 28.3857C29.2568 28.3857 28.8467 28.6283 28.5732 29.1133V31.6377C28.8434 32.1195 29.2568 32.3604 29.8135 32.3604C30.2464 32.3604 30.5898 32.1895 30.8438 31.8477C31.1009 31.5026 31.2295 30.9915 31.2295 30.3145ZM33.0459 30.3096C33.0459 29.792 33.1468 29.3265 33.3486 28.9131C33.5537 28.4997 33.8369 28.1807 34.1982 27.9561C34.5628 27.7314 34.9779 27.6191 35.4434 27.6191C36.1628 27.6191 36.7438 27.8682 37.1865 28.3662C37.6325 28.8643 37.8555 29.5267 37.8555 30.3535V30.417C37.8555 30.9313 37.7562 31.3936 37.5576 31.8037C37.3623 32.2106 37.0807 32.528 36.7129 32.7559C36.3483 32.9837 35.9284 33.0977 35.4531 33.0977C34.737 33.0977 34.1559 32.8486 33.71 32.3506C33.2673 31.8525 33.0459 31.1934 33.0459 30.373V30.3096ZM33.9541 30.417C33.9541 31.0029 34.0892 31.4733 34.3594 31.8281C34.6328 32.1829 34.9974 32.3604 35.4531 32.3604C35.9121 32.3604 36.2767 32.1813 36.5469 31.8232C36.8171 31.4619 36.9521 30.9574 36.9521 30.3096C36.9521 29.7301 36.8138 29.2614 36.5371 28.9033C36.2637 28.542 35.8991 28.3613 35.4434 28.3613C34.9974 28.3613 34.6377 28.5387 34.3643 28.8936C34.0908 29.2484 33.9541 29.7562 33.9541 30.417ZM42.0645 31.5986C42.0645 31.3545 41.9717 31.1657 41.7861 31.0322C41.6038 30.8955 41.2832 30.7783 40.8242 30.6807C40.3685 30.583 40.0055 30.4658 39.7354 30.3291C39.4684 30.1924 39.2699 30.0296 39.1396 29.8408C39.0127 29.652 38.9492 29.4274 38.9492 29.167C38.9492 28.734 39.1315 28.3678 39.4961 28.0684C39.8639 27.7689 40.3327 27.6191 40.9023 27.6191C41.5013 27.6191 41.9863 27.7738 42.3574 28.083C42.7318 28.3923 42.9189 28.7878 42.9189 29.2695H42.0107C42.0107 29.0221 41.9049 28.8089 41.6934 28.6299C41.485 28.4508 41.2214 28.3613 40.9023 28.3613C40.5736 28.3613 40.3164 28.4329 40.1309 28.5762C39.9453 28.7194 39.8525 28.9066 39.8525 29.1377C39.8525 29.3558 39.9388 29.5202 40.1113 29.6309C40.2839 29.7415 40.5947 29.8473 41.0439 29.9482C41.4964 30.0492 41.8626 30.1696 42.1426 30.3096C42.4225 30.4495 42.6292 30.6188 42.7627 30.8174C42.8994 31.0127 42.9678 31.252 42.9678 31.5352C42.9678 32.0072 42.779 32.3864 42.4014 32.6729C42.0238 32.9561 41.5339 33.0977 40.9316 33.0977C40.5085 33.0977 40.1341 33.0228 39.8086 32.873C39.4831 32.7233 39.2275 32.515 39.042 32.248C38.8597 31.9779 38.7686 31.6865 38.7686 31.374H39.6719C39.6882 31.6768 39.8086 31.9176 40.0332 32.0967C40.2611 32.2725 40.5605 32.3604 40.9316 32.3604C41.2734 32.3604 41.5469 32.292 41.752 32.1553C41.9603 32.0153 42.0645 31.8298 42.0645 31.5986ZM45.126 33H44.2227V27.7168H45.126V33ZM44.1494 26.3154C44.1494 26.1689 44.1934 26.0452 44.2812 25.9443C44.3724 25.8434 44.5059 25.793 44.6816 25.793C44.8574 25.793 44.9909 25.8434 45.082 25.9443C45.1732 26.0452 45.2188 26.1689 45.2188 26.3154C45.2188 26.4619 45.1732 26.584 45.082 26.6816C44.9909 26.7793 44.8574 26.8281 44.6816 26.8281C44.5059 26.8281 44.3724 26.7793 44.2812 26.6816C44.1934 26.584 44.1494 26.4619 44.1494 26.3154ZM47.8018 26.4375V27.7168H48.7881V28.415H47.8018V31.6914C47.8018 31.903 47.8457 32.0625 47.9336 32.1699C48.0215 32.2741 48.1712 32.3262 48.3828 32.3262C48.487 32.3262 48.6302 32.3066 48.8125 32.2676V33C48.5749 33.0651 48.3438 33.0977 48.1191 33.0977C47.7155 33.0977 47.4111 32.9756 47.2061 32.7314C47.001 32.4873 46.8984 32.1406 46.8984 31.6914V28.415H45.9365V27.7168H46.8984V26.4375H47.8018ZM50.8291 33H49.9258V27.7168H50.8291V33ZM49.8525 26.3154C49.8525 26.1689 49.8965 26.0452 49.9844 25.9443C50.0755 25.8434 50.209 25.793 50.3848 25.793C50.5605 25.793 50.694 25.8434 50.7852 25.9443C50.8763 26.0452 50.9219 26.1689 50.9219 26.3154C50.9219 26.4619 50.8763 26.584 50.7852 26.6816C50.694 26.7793 50.5605 26.8281 50.3848 26.8281C50.209 26.8281 50.0755 26.7793 49.9844 26.6816C49.8965 26.584 49.8525 26.4619 49.8525 26.3154ZM52.04 30.3096C52.04 29.792 52.141 29.3265 52.3428 28.9131C52.5479 28.4997 52.8311 28.1807 53.1924 27.9561C53.557 27.7314 53.972 27.6191 54.4375 27.6191C55.1569 27.6191 55.738 27.8682 56.1807 28.3662C56.6266 28.8643 56.8496 29.5267 56.8496 30.3535V30.417C56.8496 30.9313 56.7503 31.3936 56.5518 31.8037C56.3564 32.2106 56.0749 32.528 55.707 32.7559C55.3424 32.9837 54.9225 33.0977 54.4473 33.0977C53.7311 33.0977 53.1501 32.8486 52.7041 32.3506C52.2614 31.8525 52.04 31.1934 52.04 30.373V30.3096ZM52.9482 30.417C52.9482 31.0029 53.0833 31.4733 53.3535 31.8281C53.627 32.1829 53.9915 32.3604 54.4473 32.3604C54.9062 32.3604 55.2708 32.1813 55.541 31.8232C55.8112 31.4619 55.9463 30.9574 55.9463 30.3096C55.9463 29.7301 55.8079 29.2614 55.5312 28.9033C55.2578 28.542 54.8932 28.3613 54.4375 28.3613C53.9915 28.3613 53.6318 28.5387 53.3584 28.8936C53.085 29.2484 52.9482 29.7562 52.9482 30.417ZM58.8369 27.7168L58.8662 28.3809C59.2699 27.873 59.7972 27.6191 60.4482 27.6191C61.5648 27.6191 62.1279 28.249 62.1377 29.5088V33H61.2344V29.5039C61.2311 29.123 61.1432 28.8415 60.9707 28.6592C60.8014 28.4769 60.5361 28.3857 60.1748 28.3857C59.8818 28.3857 59.6247 28.4639 59.4033 28.6201C59.182 28.7764 59.0094 28.9814 58.8857 29.2354V33H57.9824V27.7168H58.8369Z" fill="black"/>
<line y1="39.75" x2="183" y2="39.75" stroke="#B1ACAC" stroke-width="0.5"/>
<line x1="182.53" y1="20" x2="182.53" y2="40" stroke="#B1ABAB" stroke-width="0.5"/>
<rect y="40" width="183" height="20" fill="white" fill-opacity="0.9"/>
<path d="M12.2549 49.6748C12.2549 50.3617 12.1458 50.9541 11.9277 51.4521C11.7096 51.9469 11.4036 52.3343 11.0098 52.6143L12.2793 53.6104L11.6396 54.2012L10.1406 53.0098C9.90625 53.0684 9.65885 53.0977 9.39844 53.0977C8.83854 53.0977 8.34212 52.9609 7.90918 52.6875C7.47624 52.4108 7.13932 52.0186 6.89844 51.5107C6.66081 50.9997 6.53874 50.4089 6.53223 49.7383V49.2256C6.53223 48.542 6.65104 47.9382 6.88867 47.4141C7.1263 46.89 7.46159 46.4896 7.89453 46.2129C8.33073 45.9329 8.82878 45.793 9.38867 45.793C9.96159 45.793 10.4645 45.9313 10.8975 46.208C11.3337 46.4847 11.6689 46.8835 11.9033 47.4043C12.1377 47.9219 12.2549 48.5273 12.2549 49.2207V49.6748ZM11.3174 49.2158C11.3174 48.3792 11.1497 47.7347 10.8145 47.2822C10.4824 46.8265 10.0072 46.5986 9.38867 46.5986C8.79948 46.5986 8.33398 46.8249 7.99219 47.2773C7.65365 47.7266 7.47949 48.3516 7.46973 49.1523V49.6748C7.46973 50.4886 7.639 51.1299 7.97754 51.5986C8.31934 52.0674 8.79297 52.3018 9.39844 52.3018C10.0039 52.3018 10.4727 52.082 10.8047 51.6426C11.1367 51.1999 11.3076 50.5667 11.3174 49.7432V49.2158ZM16.8203 52.4775C16.4688 52.891 15.9528 53.0977 15.2725 53.0977C14.7093 53.0977 14.2796 52.9349 13.9834 52.6094C13.6904 52.2806 13.5423 51.7956 13.5391 51.1543V47.7168H14.4424V51.1299C14.4424 51.9307 14.7679 52.3311 15.4189 52.3311C16.109 52.3311 16.568 52.0739 16.7959 51.5596V47.7168H17.6992V53H16.8398L16.8203 52.4775ZM22.3379 53C22.2858 52.8958 22.2435 52.7103 22.2109 52.4434C21.791 52.8796 21.2897 53.0977 20.707 53.0977C20.1862 53.0977 19.7581 52.9512 19.4229 52.6582C19.0908 52.362 18.9248 51.9876 18.9248 51.5352C18.9248 50.985 19.1331 50.5586 19.5498 50.2559C19.9697 49.9499 20.5589 49.7969 21.3174 49.7969H22.1963V49.3818C22.1963 49.0661 22.1019 48.8154 21.9131 48.6299C21.7243 48.4411 21.446 48.3467 21.0781 48.3467C20.7559 48.3467 20.4857 48.4281 20.2676 48.5908C20.0495 48.7536 19.9404 48.9505 19.9404 49.1816H19.0322C19.0322 48.918 19.125 48.6641 19.3105 48.4199C19.4993 48.1725 19.7533 47.9772 20.0723 47.834C20.3945 47.6908 20.7477 47.6191 21.1318 47.6191C21.7406 47.6191 22.2174 47.7721 22.5625 48.0781C22.9076 48.3809 23.0866 48.7992 23.0996 49.333V51.7646C23.0996 52.2497 23.1615 52.6354 23.2852 52.9219V53H22.3379ZM20.8389 52.3115C21.1221 52.3115 21.3906 52.2383 21.6445 52.0918C21.8984 51.9453 22.0824 51.7549 22.1963 51.5205V50.4365H21.4883C20.3815 50.4365 19.8281 50.7604 19.8281 51.4082C19.8281 51.6914 19.9225 51.9128 20.1113 52.0723C20.3001 52.2318 20.5426 52.3115 20.8389 52.3115ZM25.4971 53H24.5938V45.5H25.4971V53ZM27.9287 53H27.0254V47.7168H27.9287V53ZM26.9521 46.3154C26.9521 46.1689 26.9961 46.0452 27.084 45.9443C27.1751 45.8434 27.3086 45.793 27.4844 45.793C27.6602 45.793 27.7936 45.8434 27.8848 45.9443C27.9759 46.0452 28.0215 46.1689 28.0215 46.3154C28.0215 46.4619 27.9759 46.584 27.8848 46.6816C27.7936 46.7793 27.6602 46.8281 27.4844 46.8281C27.3086 46.8281 27.1751 46.7793 27.084 46.6816C26.9961 46.584 26.9521 46.4619 26.9521 46.3154ZM30.6045 46.4375V47.7168H31.5908V48.415H30.6045V51.6914C30.6045 51.903 30.6484 52.0625 30.7363 52.1699C30.8242 52.2741 30.974 52.3262 31.1855 52.3262C31.2897 52.3262 31.4329 52.3066 31.6152 52.2676V53C31.3776 53.0651 31.1465 53.0977 30.9219 53.0977C30.5182 53.0977 30.2139 52.9756 30.0088 52.7314C29.8037 52.4873 29.7012 52.1406 29.7012 51.6914V48.415H28.7393V47.7168H29.7012V46.4375H30.6045ZM34.3789 51.6768L35.6094 47.7168H36.5762L34.4521 53.8154C34.1234 54.6943 33.6009 55.1338 32.8848 55.1338L32.7139 55.1191L32.377 55.0557V54.3232L32.6211 54.3428C32.9271 54.3428 33.1647 54.2809 33.334 54.1572C33.5065 54.0335 33.6481 53.8073 33.7588 53.4785L33.959 52.9414L32.0742 47.7168H33.0605L34.3789 51.6768Z" fill="black"/>
<line y1="59.75" x2="183" y2="59.75" stroke="#B1ACAC" stroke-width="0.5"/>
<line x1="182.53" y1="40" x2="182.53" y2="60" stroke="#B1ABAB" stroke-width="0.5"/>
<rect y="60" width="183" height="20" fill="#E1E1E1"/>
<path d="M6.8252 73V65.8906H8.83203C9.45052 65.8906 9.9974 66.0273 10.4727 66.3008C10.9479 66.5742 11.3141 66.9632 11.5713 67.4678C11.8317 67.9723 11.9635 68.5518 11.9668 69.2061V69.6602C11.9668 70.3307 11.8366 70.9183 11.5762 71.4229C11.319 71.9274 10.9495 72.3148 10.4678 72.585C9.98926 72.8551 9.43099 72.9935 8.79297 73H6.8252ZM7.7627 66.6621V72.2334H8.74902C9.47168 72.2334 10.0332 72.0088 10.4336 71.5596C10.8372 71.1104 11.0391 70.4707 11.0391 69.6406V69.2256C11.0391 68.4183 10.8486 67.7917 10.4678 67.3457C10.0902 66.8965 9.55306 66.6686 8.85645 66.6621H7.7627ZM15.4385 73.0977C14.7223 73.0977 14.1396 72.8633 13.6904 72.3945C13.2412 71.9225 13.0166 71.2926 13.0166 70.5049V70.3389C13.0166 69.8148 13.1159 69.3477 13.3145 68.9375C13.5163 68.5241 13.7962 68.2018 14.1543 67.9707C14.5156 67.7363 14.9062 67.6191 15.3262 67.6191C16.013 67.6191 16.5469 67.8454 16.9277 68.2979C17.3086 68.7503 17.499 69.3981 17.499 70.2412V70.6172H13.9199C13.9329 71.138 14.0843 71.5596 14.374 71.8818C14.667 72.2008 15.0381 72.3604 15.4873 72.3604C15.8063 72.3604 16.0765 72.2952 16.2979 72.165C16.5192 72.0348 16.7129 71.8623 16.8789 71.6475L17.4307 72.0771C16.988 72.7575 16.3239 73.0977 15.4385 73.0977ZM15.3262 68.3613C14.9616 68.3613 14.6556 68.4948 14.4082 68.7617C14.1608 69.0254 14.0078 69.3965 13.9492 69.875H16.5957V69.8066C16.5697 69.3477 16.446 68.9928 16.2246 68.7422C16.0033 68.4883 15.7038 68.3613 15.3262 68.3613ZM19.4033 67.7168L19.4326 68.3809C19.8363 67.873 20.3636 67.6191 21.0146 67.6191C22.1312 67.6191 22.6943 68.249 22.7041 69.5088V73H21.8008V69.5039C21.7975 69.123 21.7096 68.8415 21.5371 68.6592C21.3678 68.4769 21.1025 68.3857 20.7412 68.3857C20.4482 68.3857 20.1911 68.4639 19.9697 68.6201C19.7484 68.7764 19.5758 68.9814 19.4521 69.2354V73H18.5488V67.7168H19.4033ZM23.8271 70.3096C23.8271 69.792 23.9281 69.3265 24.1299 68.9131C24.335 68.4997 24.6182 68.1807 24.9795 67.9561C25.3441 67.7314 25.7591 67.6191 26.2246 67.6191C26.944 67.6191 27.5251 67.8682 27.9678 68.3662C28.4137 68.8643 28.6367 69.5267 28.6367 70.3535V70.417C28.6367 70.9313 28.5374 71.3936 28.3389 71.8037C28.1436 72.2106 27.862 72.528 27.4941 72.7559C27.1296 72.9837 26.7096 73.0977 26.2344 73.0977C25.5182 73.0977 24.9372 72.8486 24.4912 72.3506C24.0485 71.8525 23.8271 71.1934 23.8271 70.373V70.3096ZM24.7354 70.417C24.7354 71.0029 24.8704 71.4733 25.1406 71.8281C25.4141 72.1829 25.7786 72.3604 26.2344 72.3604C26.6934 72.3604 27.0579 72.1813 27.3281 71.8232C27.5983 71.4619 27.7334 70.9574 27.7334 70.3096C27.7334 69.7301 27.5951 69.2614 27.3184 68.9033C27.0449 68.542 26.6803 68.3613 26.2246 68.3613C25.7786 68.3613 25.4189 68.5387 25.1455 68.8936C24.8721 69.2484 24.7354 69.7562 24.7354 70.417ZM30.6191 67.7168L30.6436 68.3027C31.0309 67.847 31.5534 67.6191 32.2109 67.6191C32.9499 67.6191 33.4528 67.9023 33.7197 68.4688C33.8955 68.2148 34.1234 68.0098 34.4033 67.8535C34.6865 67.6973 35.0202 67.6191 35.4043 67.6191C36.5632 67.6191 37.1523 68.2327 37.1719 69.46V73H36.2686V69.5137C36.2686 69.1361 36.1823 68.8545 36.0098 68.6689C35.8372 68.4801 35.5475 68.3857 35.1406 68.3857C34.8053 68.3857 34.527 68.4867 34.3057 68.6885C34.0843 68.887 33.9557 69.1556 33.9199 69.4941V73H33.0117V69.5381C33.0117 68.7699 32.6357 68.3857 31.8838 68.3857C31.2913 68.3857 30.8861 68.638 30.668 69.1426V73H29.7646V67.7168H30.6191ZM39.5205 73H38.6172V67.7168H39.5205V73ZM38.5439 66.3154C38.5439 66.1689 38.5879 66.0452 38.6758 65.9443C38.7669 65.8434 38.9004 65.793 39.0762 65.793C39.252 65.793 39.3854 65.8434 39.4766 65.9443C39.5677 66.0452 39.6133 66.1689 39.6133 66.3154C39.6133 66.4619 39.5677 66.584 39.4766 66.6816C39.3854 66.7793 39.252 66.8281 39.0762 66.8281C38.9004 66.8281 38.7669 66.7793 38.6758 66.6816C38.5879 66.584 38.5439 66.4619 38.5439 66.3154ZM41.8252 67.7168L41.8545 68.3809C42.2581 67.873 42.7855 67.6191 43.4365 67.6191C44.5531 67.6191 45.1162 68.249 45.126 69.5088V73H44.2227V69.5039C44.2194 69.123 44.1315 68.8415 43.959 68.6592C43.7897 68.4769 43.5244 68.3857 43.1631 68.3857C42.8701 68.3857 42.613 68.4639 42.3916 68.6201C42.1702 68.7764 41.9977 68.9814 41.874 69.2354V73H40.9707V67.7168H41.8252ZM49.75 73C49.6979 72.8958 49.6556 72.7103 49.623 72.4434C49.2031 72.8796 48.7018 73.0977 48.1191 73.0977C47.5983 73.0977 47.1702 72.9512 46.835 72.6582C46.5029 72.362 46.3369 71.9876 46.3369 71.5352C46.3369 70.985 46.5452 70.5586 46.9619 70.2559C47.3818 69.9499 47.971 69.7969 48.7295 69.7969H49.6084V69.3818C49.6084 69.0661 49.514 68.8154 49.3252 68.6299C49.1364 68.4411 48.8581 68.3467 48.4902 68.3467C48.168 68.3467 47.8978 68.4281 47.6797 68.5908C47.4616 68.7536 47.3525 68.9505 47.3525 69.1816H46.4443C46.4443 68.918 46.5371 68.6641 46.7227 68.4199C46.9115 68.1725 47.1654 67.9772 47.4844 67.834C47.8066 67.6908 48.1598 67.6191 48.5439 67.6191C49.1527 67.6191 49.6296 67.7721 49.9746 68.0781C50.3197 68.3809 50.4987 68.7992 50.5117 69.333V71.7646C50.5117 72.2497 50.5736 72.6354 50.6973 72.9219V73H49.75ZM48.251 72.3115C48.5342 72.3115 48.8027 72.2383 49.0566 72.0918C49.3105 71.9453 49.4945 71.7549 49.6084 71.5205V70.4365H48.9004C47.7936 70.4365 47.2402 70.7604 47.2402 71.4082C47.2402 71.6914 47.3346 71.9128 47.5234 72.0723C47.7122 72.2318 47.9548 72.3115 48.251 72.3115ZM53.1533 66.4375V67.7168H54.1396V68.415H53.1533V71.6914C53.1533 71.903 53.1973 72.0625 53.2852 72.1699C53.373 72.2741 53.5228 72.3262 53.7344 72.3262C53.8385 72.3262 53.9818 72.3066 54.1641 72.2676V73C53.9264 73.0651 53.6953 73.0977 53.4707 73.0977C53.0671 73.0977 52.7627 72.9756 52.5576 72.7314C52.3525 72.4873 52.25 72.1406 52.25 71.6914V68.415H51.2881V67.7168H52.25V66.4375H53.1533ZM56.1807 73H55.2773V67.7168H56.1807V73ZM55.2041 66.3154C55.2041 66.1689 55.248 66.0452 55.3359 65.9443C55.4271 65.8434 55.5605 65.793 55.7363 65.793C55.9121 65.793 56.0456 65.8434 56.1367 65.9443C56.2279 66.0452 56.2734 66.1689 56.2734 66.3154C56.2734 66.4619 56.2279 66.584 56.1367 66.6816C56.0456 66.7793 55.9121 66.8281 55.7363 66.8281C55.5605 66.8281 55.4271 66.7793 55.3359 66.6816C55.248 66.584 55.2041 66.4619 55.2041 66.3154ZM57.3916 70.3096C57.3916 69.792 57.4925 69.3265 57.6943 68.9131C57.8994 68.4997 58.1826 68.1807 58.5439 67.9561C58.9085 67.7314 59.3236 67.6191 59.7891 67.6191C60.5085 67.6191 61.0895 67.8682 61.5322 68.3662C61.9782 68.8643 62.2012 69.5267 62.2012 70.3535V70.417C62.2012 70.9313 62.1019 71.3936 61.9033 71.8037C61.708 72.2106 61.4264 72.528 61.0586 72.7559C60.694 72.9837 60.2741 73.0977 59.7988 73.0977C59.0827 73.0977 58.5016 72.8486 58.0557 72.3506C57.613 71.8525 57.3916 71.1934 57.3916 70.373V70.3096ZM58.2998 70.417C58.2998 71.0029 58.4349 71.4733 58.7051 71.8281C58.9785 72.1829 59.3431 72.3604 59.7988 72.3604C60.2578 72.3604 60.6224 72.1813 60.8926 71.8232C61.1628 71.4619 61.2979 70.9574 61.2979 70.3096C61.2979 69.7301 61.1595 69.2614 60.8828 68.9033C60.6094 68.542 60.2448 68.3613 59.7891 68.3613C59.3431 68.3613 58.9834 68.5387 58.71 68.8936C58.4365 69.2484 58.2998 69.7562 58.2998 70.417ZM64.1885 67.7168L64.2178 68.3809C64.6214 67.873 65.1488 67.6191 65.7998 67.6191C66.9163 67.6191 67.4795 68.249 67.4893 69.5088V73H66.5859V69.5039C66.5827 69.123 66.4948 68.8415 66.3223 68.6592C66.153 68.4769 65.8877 68.3857 65.5264 68.3857C65.2334 68.3857 64.9762 68.4639 64.7549 68.6201C64.5335 68.7764 64.361 68.9814 64.2373 69.2354V73H63.334V67.7168H64.1885Z" fill="black"/>
<line y1="79.75" x2="183" y2="79.75" stroke="#B1ACAC" stroke-width="0.5"/>
<line x1="182.53" y1="60" x2="182.53" y2="80" stroke="#B1ABAB" stroke-width="0.5"/>
<rect y="80" width="183" height="20" fill="white" fill-opacity="0.9"/>
<path d="M8.99316 89.46L10.8486 85.8906H11.9131L9.46191 90.3486V93H8.52441V90.3486L6.07324 85.8906H7.14746L8.99316 89.46ZM14.5596 93.0977C13.8434 93.0977 13.2607 92.8633 12.8115 92.3945C12.3623 91.9225 12.1377 91.2926 12.1377 90.5049V90.3389C12.1377 89.8148 12.237 89.3477 12.4355 88.9375C12.6374 88.5241 12.9173 88.2018 13.2754 87.9707C13.6367 87.7363 14.0273 87.6191 14.4473 87.6191C15.1341 87.6191 15.668 87.8454 16.0488 88.2979C16.4297 88.7503 16.6201 89.3981 16.6201 90.2412V90.6172H13.041C13.054 91.138 13.2054 91.5596 13.4951 91.8818C13.7881 92.2008 14.1592 92.3604 14.6084 92.3604C14.9274 92.3604 15.1976 92.2952 15.4189 92.165C15.6403 92.0348 15.834 91.8623 16 91.6475L16.5518 92.0771C16.109 92.7575 15.445 93.0977 14.5596 93.0977ZM14.4473 88.3613C14.0827 88.3613 13.7767 88.4948 13.5293 88.7617C13.2819 89.0254 13.1289 89.3965 13.0703 89.875H15.7168V89.8066C15.6908 89.3477 15.5671 88.9928 15.3457 88.7422C15.1243 88.4883 14.8249 88.3613 14.4473 88.3613ZM20.9316 93C20.8796 92.8958 20.8372 92.7103 20.8047 92.4434C20.3848 92.8796 19.8835 93.0977 19.3008 93.0977C18.7799 93.0977 18.3519 92.9512 18.0166 92.6582C17.6846 92.362 17.5186 91.9876 17.5186 91.5352C17.5186 90.985 17.7269 90.5586 18.1436 90.2559C18.5635 89.9499 19.1527 89.7969 19.9111 89.7969H20.79V89.3818C20.79 89.0661 20.6956 88.8154 20.5068 88.6299C20.318 88.4411 20.0397 88.3467 19.6719 88.3467C19.3496 88.3467 19.0794 88.4281 18.8613 88.5908C18.6432 88.7536 18.5342 88.9505 18.5342 89.1816H17.626C17.626 88.918 17.7188 88.6641 17.9043 88.4199C18.0931 88.1725 18.347 87.9772 18.666 87.834C18.9883 87.6908 19.3415 87.6191 19.7256 87.6191C20.3343 87.6191 20.8112 87.7721 21.1562 88.0781C21.5013 88.3809 21.6803 88.7992 21.6934 89.333V91.7646C21.6934 92.2497 21.7552 92.6354 21.8789 92.9219V93H20.9316ZM19.4326 92.3115C19.7158 92.3115 19.9844 92.2383 20.2383 92.0918C20.4922 91.9453 20.6761 91.7549 20.79 91.5205V90.4365H20.082C18.9753 90.4365 18.4219 90.7604 18.4219 91.4082C18.4219 91.6914 18.5163 91.9128 18.7051 92.0723C18.8939 92.2318 19.1364 92.3115 19.4326 92.3115ZM25.6631 88.5273C25.5264 88.5046 25.3783 88.4932 25.2188 88.4932C24.6263 88.4932 24.2243 88.7454 24.0127 89.25V93H23.1094V87.7168H23.9883L24.0029 88.3271C24.2992 87.8551 24.7191 87.6191 25.2627 87.6191C25.4385 87.6191 25.5719 87.6419 25.6631 87.6875V88.5273Z" fill="black"/>
<line y1="99.75" x2="183" y2="99.75" stroke="#B1ACAC" stroke-width="0.5"/>
<line x1="182.53" y1="80" x2="182.53" y2="100" stroke="#B1ABAB" stroke-width="0.5"/>
<rect y="120" width="183" height="20" fill="white" fill-opacity="0.9"/>
<path d="M7.7627 130.217V133H6.8252V125.891H9.44727C10.2253 125.891 10.834 126.089 11.2734 126.486C11.7161 126.883 11.9375 127.409 11.9375 128.063C11.9375 128.754 11.721 129.286 11.2881 129.66C10.8584 130.031 10.2415 130.217 9.4375 130.217H7.7627ZM7.7627 129.45H9.44727C9.94857 129.45 10.3327 129.333 10.5996 129.099C10.8665 128.861 11 128.519 11 128.073C11 127.65 10.8665 127.312 10.5996 127.058C10.3327 126.804 9.96647 126.672 9.50098 126.662H7.7627V129.45ZM15.5459 128.527C15.4092 128.505 15.2611 128.493 15.1016 128.493C14.5091 128.493 14.1071 128.745 13.8955 129.25V133H12.9922V127.717H13.8711L13.8857 128.327C14.182 127.855 14.6019 127.619 15.1455 127.619C15.3213 127.619 15.4548 127.642 15.5459 127.688V128.527ZM17.3623 133H16.459V127.717H17.3623V133ZM16.3857 126.315C16.3857 126.169 16.4297 126.045 16.5176 125.944C16.6087 125.843 16.7422 125.793 16.918 125.793C17.0938 125.793 17.2272 125.843 17.3184 125.944C17.4095 126.045 17.4551 126.169 17.4551 126.315C17.4551 126.462 17.4095 126.584 17.3184 126.682C17.2272 126.779 17.0938 126.828 16.918 126.828C16.7422 126.828 16.6087 126.779 16.5176 126.682C16.4297 126.584 16.3857 126.462 16.3857 126.315ZM20.9316 132.36C21.2539 132.36 21.5355 132.263 21.7764 132.067C22.0173 131.872 22.1507 131.628 22.1768 131.335H23.0312C23.015 131.638 22.9108 131.926 22.7188 132.199C22.5267 132.473 22.2695 132.691 21.9473 132.854C21.6283 133.016 21.2897 133.098 20.9316 133.098C20.2122 133.098 19.6393 132.858 19.2129 132.38C18.7897 131.898 18.5781 131.241 18.5781 130.407V130.256C18.5781 129.742 18.6725 129.284 18.8613 128.884C19.0501 128.483 19.3203 128.173 19.6719 127.951C20.0267 127.73 20.445 127.619 20.9268 127.619C21.5192 127.619 22.0107 127.797 22.4014 128.151C22.7952 128.506 23.0052 128.967 23.0312 129.533H22.1768C22.1507 129.191 22.0205 128.911 21.7861 128.693C21.555 128.472 21.2686 128.361 20.9268 128.361C20.4678 128.361 20.1113 128.527 19.8574 128.859C19.6068 129.188 19.4814 129.665 19.4814 130.29V130.461C19.4814 131.07 19.6068 131.538 19.8574 131.867C20.1081 132.196 20.4661 132.36 20.9316 132.36ZM26.2393 133.098C25.5231 133.098 24.9404 132.863 24.4912 132.395C24.042 131.923 23.8174 131.293 23.8174 130.505V130.339C23.8174 129.815 23.9167 129.348 24.1152 128.938C24.3171 128.524 24.597 128.202 24.9551 127.971C25.3164 127.736 25.707 127.619 26.127 127.619C26.8138 127.619 27.3477 127.845 27.7285 128.298C28.1094 128.75 28.2998 129.398 28.2998 130.241V130.617H24.7207C24.7337 131.138 24.8851 131.56 25.1748 131.882C25.4678 132.201 25.8389 132.36 26.2881 132.36C26.6071 132.36 26.8773 132.295 27.0986 132.165C27.32 132.035 27.5137 131.862 27.6797 131.647L28.2314 132.077C27.7887 132.757 27.1247 133.098 26.2393 133.098ZM26.127 128.361C25.7624 128.361 25.4564 128.495 25.209 128.762C24.9616 129.025 24.8086 129.396 24.75 129.875H27.3965V129.807C27.3704 129.348 27.2467 128.993 27.0254 128.742C26.804 128.488 26.5046 128.361 26.127 128.361Z" fill="black"/>
<line y1="139.75" x2="183" y2="139.75" stroke="#B1ACAC" stroke-width="0.5"/>
<line x1="182.53" y1="120" x2="182.53" y2="140" stroke="#B1ABAB" stroke-width="0.5"/>
<rect y="100" width="183" height="20" fill="#E1E1E1"/>
<path d="M8.3584 110.759L8.49512 111.696L8.69531 110.852L10.1016 105.891H10.8926L12.2646 110.852L12.46 111.711L12.6113 110.754L13.7148 105.891H14.6572L12.9336 113H12.0791L10.6143 107.819L10.502 107.277L10.3896 107.819L8.87109 113H8.0166L6.29785 105.891H7.23535L8.3584 110.759ZM17.5967 113.098C16.8805 113.098 16.2979 112.863 15.8486 112.395C15.3994 111.923 15.1748 111.293 15.1748 110.505V110.339C15.1748 109.815 15.2741 109.348 15.4727 108.938C15.6745 108.524 15.9544 108.202 16.3125 107.971C16.6738 107.736 17.0645 107.619 17.4844 107.619C18.1712 107.619 18.7051 107.845 19.0859 108.298C19.4668 108.75 19.6572 109.398 19.6572 110.241V110.617H16.0781C16.0911 111.138 16.2425 111.56 16.5322 111.882C16.8252 112.201 17.1963 112.36 17.6455 112.36C17.9645 112.36 18.2347 112.295 18.4561 112.165C18.6774 112.035 18.8711 111.862 19.0371 111.647L19.5889 112.077C19.1462 112.757 18.4821 113.098 17.5967 113.098ZM17.4844 108.361C17.1198 108.361 16.8138 108.495 16.5664 108.762C16.319 109.025 16.166 109.396 16.1074 109.875H18.7539V109.807C18.7279 109.348 18.6042 108.993 18.3828 108.742C18.1615 108.488 17.862 108.361 17.4844 108.361ZM21.6885 113H20.7852V107.717H21.6885V113ZM20.7119 106.315C20.7119 106.169 20.7559 106.045 20.8438 105.944C20.9349 105.843 21.0684 105.793 21.2441 105.793C21.4199 105.793 21.5534 105.843 21.6445 105.944C21.7357 106.045 21.7812 106.169 21.7812 106.315C21.7812 106.462 21.7357 106.584 21.6445 106.682C21.5534 106.779 21.4199 106.828 21.2441 106.828C21.0684 106.828 20.9349 106.779 20.8438 106.682C20.7559 106.584 20.7119 106.462 20.7119 106.315ZM22.9238 110.314C22.9238 109.491 23.1143 108.837 23.4951 108.352C23.876 107.863 24.3805 107.619 25.0088 107.619C25.6533 107.619 26.1562 107.847 26.5176 108.303L26.5615 107.717H27.3867V112.873C27.3867 113.557 27.1833 114.095 26.7764 114.489C26.3727 114.883 25.8291 115.08 25.1455 115.08C24.7646 115.08 24.3919 114.999 24.0273 114.836C23.6628 114.673 23.3844 114.45 23.1924 114.167L23.6611 113.625C24.0485 114.104 24.5221 114.343 25.082 114.343C25.5215 114.343 25.8633 114.219 26.1074 113.972C26.3548 113.724 26.4785 113.376 26.4785 112.927V112.473C26.1172 112.889 25.624 113.098 24.999 113.098C24.3805 113.098 23.8792 112.849 23.4951 112.351C23.1143 111.853 22.9238 111.174 22.9238 110.314ZM23.832 110.417C23.832 111.013 23.9541 111.481 24.1982 111.823C24.4424 112.162 24.7842 112.331 25.2236 112.331C25.7933 112.331 26.2116 112.072 26.4785 111.555V109.143C26.2018 108.638 25.7868 108.386 25.2334 108.386C24.7939 108.386 24.4505 108.557 24.2031 108.898C23.9557 109.24 23.832 109.746 23.832 110.417ZM29.6572 108.356C30.0576 107.865 30.5785 107.619 31.2197 107.619C32.3363 107.619 32.8994 108.249 32.9092 109.509V113H32.0059V109.504C32.0026 109.123 31.9147 108.841 31.7422 108.659C31.5729 108.477 31.3076 108.386 30.9463 108.386C30.6533 108.386 30.3962 108.464 30.1748 108.62C29.9535 108.776 29.7809 108.981 29.6572 109.235V113H28.7539V105.5H29.6572V108.356ZM35.4873 106.438V107.717H36.4736V108.415H35.4873V111.691C35.4873 111.903 35.5312 112.062 35.6191 112.17C35.707 112.274 35.8568 112.326 36.0684 112.326C36.1725 112.326 36.3158 112.307 36.498 112.268V113C36.2604 113.065 36.0293 113.098 35.8047 113.098C35.401 113.098 35.0967 112.976 34.8916 112.731C34.6865 112.487 34.584 112.141 34.584 111.691V108.415H33.6221V107.717H34.584V106.438H35.4873Z" fill="black"/>
<line x1="182.53" y1="100" x2="182.53" y2="120" stroke="#B1ABAB" stroke-width="0.5"/>
<rect x="183" width="183" height="20" fill="white" fill-opacity="0.9"/>
<path d="M195.055 10.7441C194.967 11.4961 194.688 12.0771 194.22 12.4873C193.754 12.8942 193.134 13.0977 192.359 13.0977C191.52 13.0977 190.846 12.7965 190.338 12.1943C189.833 11.5921 189.581 10.7865 189.581 9.77734V9.09375C189.581 8.43294 189.698 7.85189 189.933 7.35059C190.17 6.84928 190.506 6.46517 190.938 6.19824C191.371 5.92806 191.873 5.79297 192.442 5.79297C193.198 5.79297 193.803 6.00456 194.259 6.42773C194.715 6.84766 194.98 7.43034 195.055 8.17578H194.112C194.031 7.60938 193.854 7.19922 193.58 6.94531C193.31 6.69141 192.931 6.56445 192.442 6.56445C191.843 6.56445 191.373 6.78581 191.031 7.22852C190.693 7.67122 190.523 8.30111 190.523 9.11816V9.80664C190.523 10.5781 190.685 11.1917 191.007 11.6475C191.329 12.1032 191.78 12.3311 192.359 12.3311C192.88 12.3311 193.279 12.2139 193.556 11.9795C193.836 11.7419 194.021 11.3301 194.112 10.7441H195.055ZM200.265 11.1445H197.286L196.617 13H195.65L198.365 5.89062H199.186L201.905 13H200.943L200.265 11.1445ZM197.569 10.373H199.986L198.775 7.04785L197.569 10.373ZM208.326 13H207.384L203.805 7.52148V13H202.862V5.89062H203.805L207.394 11.3936V5.89062H208.326V13ZM214.005 11.1445H211.026L210.357 13H209.391L212.105 5.89062H212.926L215.646 13H214.684L214.005 11.1445ZM211.31 10.373H213.727L212.516 7.04785L211.31 10.373ZM216.603 13V5.89062H218.609C219.228 5.89062 219.775 6.02734 220.25 6.30078C220.725 6.57422 221.091 6.96322 221.349 7.46777C221.609 7.97233 221.741 8.55176 221.744 9.20605V9.66016C221.744 10.3307 221.614 10.9183 221.354 11.4229C221.096 11.9274 220.727 12.3148 220.245 12.585C219.767 12.8551 219.208 12.9935 218.57 13H216.603ZM217.54 6.66211V12.2334H218.526C219.249 12.2334 219.811 12.0088 220.211 11.5596C220.615 11.1104 220.816 10.4707 220.816 9.64062V9.22559C220.816 8.41829 220.626 7.79167 220.245 7.3457C219.868 6.89648 219.33 6.66862 218.634 6.66211H217.54ZM226.983 11.1445H224.005L223.336 13H222.369L225.084 5.89062H225.904L228.624 13H227.662L226.983 11.1445ZM224.288 10.373H226.705L225.494 7.04785L224.288 10.373Z" fill="black"/>
<line x1="183" y1="19.75" x2="366" y2="19.75" stroke="#B1ACAC" stroke-width="0.5"/>
<rect x="183" y="20" width="183" height="20" fill="#E1E1E1"/>
<path d="M195.289 33H194.347L190.768 27.5215V33H189.825V25.8906H190.768L194.356 31.3936V25.8906H195.289V33ZM197.794 33H196.891V27.7168H197.794V33ZM196.817 26.3154C196.817 26.1689 196.861 26.0452 196.949 25.9443C197.04 25.8434 197.174 25.793 197.35 25.793C197.525 25.793 197.659 25.8434 197.75 25.9443C197.841 26.0452 197.887 26.1689 197.887 26.3154C197.887 26.4619 197.841 26.584 197.75 26.6816C197.659 26.7793 197.525 26.8281 197.35 26.8281C197.174 26.8281 197.04 26.7793 196.949 26.6816C196.861 26.584 196.817 26.4619 196.817 26.3154ZM201.363 32.3604C201.686 32.3604 201.967 32.2627 202.208 32.0674C202.449 31.8721 202.582 31.6279 202.608 31.335H203.463C203.447 31.6377 203.342 31.9258 203.15 32.1992C202.958 32.4727 202.701 32.6908 202.379 32.8535C202.06 33.0163 201.721 33.0977 201.363 33.0977C200.644 33.0977 200.071 32.8584 199.645 32.3799C199.221 31.8981 199.01 31.2406 199.01 30.4072V30.2559C199.01 29.7415 199.104 29.2842 199.293 28.8838C199.482 28.4834 199.752 28.1725 200.104 27.9512C200.458 27.7298 200.877 27.6191 201.358 27.6191C201.951 27.6191 202.442 27.7965 202.833 28.1514C203.227 28.5062 203.437 28.9668 203.463 29.5332H202.608C202.582 29.1914 202.452 28.9115 202.218 28.6934C201.987 28.472 201.7 28.3613 201.358 28.3613C200.899 28.3613 200.543 28.5273 200.289 28.8594C200.038 29.1882 199.913 29.665 199.913 30.29V30.4609C199.913 31.0697 200.038 31.5384 200.289 31.8672C200.54 32.196 200.898 32.3604 201.363 32.3604ZM205.953 30.5537L205.387 31.1445V33H204.483V25.5H205.387V30.0361L205.87 29.4551L207.516 27.7168H208.614L206.559 29.9238L208.854 33H207.794L205.953 30.5537ZM211.642 33.0977C210.925 33.0977 210.343 32.8633 209.894 32.3945C209.444 31.9225 209.22 31.2926 209.22 30.5049V30.3389C209.22 29.8148 209.319 29.3477 209.518 28.9375C209.719 28.5241 209.999 28.2018 210.357 27.9707C210.719 27.7363 211.109 27.6191 211.529 27.6191C212.216 27.6191 212.75 27.8454 213.131 28.2979C213.512 28.7503 213.702 29.3981 213.702 30.2412V30.6172H210.123C210.136 31.138 210.287 31.5596 210.577 31.8818C210.87 32.2008 211.241 32.3604 211.69 32.3604C212.009 32.3604 212.28 32.2952 212.501 32.165C212.722 32.0348 212.916 31.8623 213.082 31.6475L213.634 32.0771C213.191 32.7575 212.527 33.0977 211.642 33.0977ZM211.529 28.3613C211.165 28.3613 210.859 28.4948 210.611 28.7617C210.364 29.0254 210.211 29.3965 210.152 29.875H212.799V29.8066C212.773 29.3477 212.649 28.9928 212.428 28.7422C212.206 28.4883 211.907 28.3613 211.529 28.3613ZM215.733 33H214.83V25.5H215.733V33Z" fill="black"/>
<line x1="183" y1="39.75" x2="366" y2="39.75" stroke="#B1ACAC" stroke-width="0.5"/>
<rect x="183" y="40" width="183" height="20" fill="white" fill-opacity="0.9"/>
<path d="M189.825 53V45.8906H192.149C192.921 45.8906 193.5 46.0501 193.888 46.3691C194.278 46.6882 194.474 47.1602 194.474 47.7852C194.474 48.1172 194.379 48.4118 194.19 48.6689C194.002 48.9229 193.744 49.1198 193.419 49.2598C193.803 49.3672 194.106 49.5723 194.327 49.875C194.552 50.1745 194.664 50.5326 194.664 50.9492C194.664 51.5872 194.457 52.0885 194.044 52.4531C193.631 52.8177 193.046 53 192.291 53H189.825ZM190.763 49.6748V52.2334H192.311C192.747 52.2334 193.09 52.1211 193.341 51.8965C193.595 51.6686 193.722 51.3561 193.722 50.959C193.722 50.1029 193.256 49.6748 192.325 49.6748H190.763ZM190.763 48.9229H192.179C192.589 48.9229 192.916 48.8203 193.16 48.6152C193.408 48.4102 193.531 48.1318 193.531 47.7803C193.531 47.3896 193.417 47.1064 193.189 46.9307C192.962 46.7516 192.615 46.6621 192.149 46.6621H190.763V48.9229ZM201.061 45.8906V50.7246C201.057 51.3952 200.846 51.9437 200.426 52.3701C200.009 52.7965 199.443 53.0358 198.727 53.0879L198.478 53.0977C197.7 53.0977 197.079 52.8877 196.617 52.4678C196.155 52.0479 195.921 51.4701 195.914 50.7344V45.8906H196.842V50.7051C196.842 51.2194 196.983 51.6198 197.267 51.9062C197.55 52.1895 197.953 52.3311 198.478 52.3311C199.008 52.3311 199.413 52.1895 199.693 51.9062C199.977 51.623 200.118 51.2243 200.118 50.71V45.8906H201.061Z" fill="black"/>
<line x1="183" y1="59.75" x2="366" y2="59.75" stroke="#B1ACAC" stroke-width="0.5"/>
<rect x="183" y="60" width="183" height="20" fill="#E1E1E1"/>
<path d="M190.006 69.4355L190.367 65.8906H194.01V66.7256H191.134L190.919 68.6641C191.267 68.459 191.663 68.3564 192.105 68.3564C192.753 68.3564 193.268 68.5713 193.648 69.001C194.029 69.4274 194.22 70.0052 194.22 70.7344C194.22 71.4668 194.021 72.0446 193.624 72.4678C193.23 72.8877 192.678 73.0977 191.969 73.0977C191.34 73.0977 190.828 72.9235 190.431 72.5752C190.034 72.2269 189.807 71.7451 189.752 71.1299H190.606C190.662 71.5368 190.807 71.8444 191.041 72.0527C191.275 72.2578 191.585 72.3604 191.969 72.3604C192.389 72.3604 192.717 72.2171 192.955 71.9307C193.196 71.6442 193.316 71.2487 193.316 70.7441C193.316 70.2689 193.186 69.888 192.926 69.6016C192.669 69.3118 192.325 69.167 191.896 69.167C191.502 69.167 191.192 69.2533 190.968 69.4258L190.729 69.6211L190.006 69.4355ZM199.898 72.3604C200.221 72.3604 200.502 72.2627 200.743 72.0674C200.984 71.8721 201.118 71.6279 201.144 71.335H201.998C201.982 71.6377 201.878 71.9258 201.686 72.1992C201.493 72.4727 201.236 72.6908 200.914 72.8535C200.595 73.0163 200.257 73.0977 199.898 73.0977C199.179 73.0977 198.606 72.8584 198.18 72.3799C197.757 71.8981 197.545 71.2406 197.545 70.4072V70.2559C197.545 69.7415 197.639 69.2842 197.828 68.8838C198.017 68.4834 198.287 68.1725 198.639 67.9512C198.993 67.7298 199.412 67.6191 199.894 67.6191C200.486 67.6191 200.978 67.7965 201.368 68.1514C201.762 68.5062 201.972 68.9668 201.998 69.5332H201.144C201.118 69.1914 200.987 68.9115 200.753 68.6934C200.522 68.472 200.235 68.3613 199.894 68.3613C199.435 68.3613 199.078 68.5273 198.824 68.8594C198.574 69.1882 198.448 69.665 198.448 70.29V70.4609C198.448 71.0697 198.574 71.5384 198.824 71.8672C199.075 72.196 199.433 72.3604 199.898 72.3604ZM205.206 73.0977C204.49 73.0977 203.907 72.8633 203.458 72.3945C203.009 71.9225 202.784 71.2926 202.784 70.5049V70.3389C202.784 69.8148 202.883 69.3477 203.082 68.9375C203.284 68.5241 203.564 68.2018 203.922 67.9707C204.283 67.7363 204.674 67.6191 205.094 67.6191C205.781 67.6191 206.314 67.8454 206.695 68.2979C207.076 68.7503 207.267 69.3981 207.267 70.2412V70.6172H203.688C203.701 71.138 203.852 71.5596 204.142 71.8818C204.435 72.2008 204.806 72.3604 205.255 72.3604C205.574 72.3604 205.844 72.2952 206.065 72.165C206.287 72.0348 206.48 71.8623 206.646 71.6475L207.198 72.0771C206.756 72.7575 206.091 73.0977 205.206 73.0977ZM205.094 68.3613C204.729 68.3613 204.423 68.4948 204.176 68.7617C203.928 69.0254 203.775 69.3965 203.717 69.875H206.363V69.8066C206.337 69.3477 206.214 68.9928 205.992 68.7422C205.771 68.4883 205.471 68.3613 205.094 68.3613ZM209.171 67.7168L209.2 68.3809C209.604 67.873 210.131 67.6191 210.782 67.6191C211.899 67.6191 212.462 68.249 212.472 69.5088V73H211.568V69.5039C211.565 69.123 211.477 68.8415 211.305 68.6592C211.135 68.4769 210.87 68.3857 210.509 68.3857C210.216 68.3857 209.959 68.4639 209.737 68.6201C209.516 68.7764 209.343 68.9814 209.22 69.2354V73H208.316V67.7168H209.171ZM215.06 66.4375V67.7168H216.046V68.415H215.06V71.6914C215.06 71.903 215.104 72.0625 215.191 72.1699C215.279 72.2741 215.429 72.3262 215.641 72.3262C215.745 72.3262 215.888 72.3066 216.07 72.2676V73C215.833 73.0651 215.602 73.0977 215.377 73.0977C214.973 73.0977 214.669 72.9756 214.464 72.7314C214.259 72.4873 214.156 72.1406 214.156 71.6914V68.415H213.194V67.7168H214.156V66.4375H215.06ZM220.182 71.5986C220.182 71.3545 220.089 71.1657 219.903 71.0322C219.721 70.8955 219.4 70.7783 218.941 70.6807C218.486 70.583 218.123 70.4658 217.853 70.3291C217.586 70.1924 217.387 70.0296 217.257 69.8408C217.13 69.652 217.066 69.4274 217.066 69.167C217.066 68.734 217.249 68.3678 217.613 68.0684C217.981 67.7689 218.45 67.6191 219.02 67.6191C219.618 67.6191 220.104 67.7738 220.475 68.083C220.849 68.3923 221.036 68.7878 221.036 69.2695H220.128C220.128 69.0221 220.022 68.8089 219.811 68.6299C219.602 68.4508 219.339 68.3613 219.02 68.3613C218.691 68.3613 218.434 68.4329 218.248 68.5762C218.062 68.7194 217.97 68.9066 217.97 69.1377C217.97 69.3558 218.056 69.5202 218.229 69.6309C218.401 69.7415 218.712 69.8473 219.161 69.9482C219.614 70.0492 219.98 70.1696 220.26 70.3096C220.54 70.4495 220.746 70.6188 220.88 70.8174C221.017 71.0127 221.085 71.252 221.085 71.5352C221.085 72.0072 220.896 72.3864 220.519 72.6729C220.141 72.9561 219.651 73.0977 219.049 73.0977C218.626 73.0977 218.251 73.0228 217.926 72.873C217.6 72.7233 217.345 72.515 217.159 72.248C216.977 71.9779 216.886 71.6865 216.886 71.374H217.789C217.805 71.6768 217.926 71.9176 218.15 72.0967C218.378 72.2725 218.678 72.3604 219.049 72.3604C219.391 72.3604 219.664 72.292 219.869 72.1553C220.077 72.0153 220.182 71.8298 220.182 71.5986Z" fill="black"/>
<line x1="183" y1="79.75" x2="366" y2="79.75" stroke="#B1ACAC" stroke-width="0.5"/>
<rect x="183" y="80" width="183" height="20" fill="white" fill-opacity="0.9"/>
<path d="M192.56 93H191.651V86.9795L189.83 87.6484V86.8281L192.418 85.8564H192.56V93ZM198.668 89.875C198.479 90.0996 198.253 90.2803 197.989 90.417C197.729 90.5537 197.442 90.6221 197.13 90.6221C196.72 90.6221 196.362 90.5212 196.056 90.3193C195.753 90.1175 195.519 89.8343 195.353 89.4697C195.187 89.1019 195.104 88.6966 195.104 88.2539C195.104 87.7786 195.193 87.3506 195.372 86.9697C195.554 86.5889 195.812 86.2975 196.144 86.0957C196.476 85.8939 196.863 85.793 197.306 85.793C198.009 85.793 198.562 86.0566 198.966 86.584C199.373 87.1081 199.576 87.8242 199.576 88.7324V88.9961C199.576 90.3796 199.303 91.3903 198.756 92.0283C198.209 92.6631 197.384 92.9886 196.28 93.0049H196.104V92.2432H196.295C197.04 92.2301 197.613 92.0365 198.014 91.6621C198.414 91.2845 198.632 90.6888 198.668 89.875ZM197.276 89.875C197.579 89.875 197.857 89.7822 198.111 89.5967C198.368 89.4111 198.556 89.1816 198.673 88.9082V88.5469C198.673 87.9544 198.544 87.4727 198.287 87.1016C198.03 86.7305 197.704 86.5449 197.311 86.5449C196.913 86.5449 196.594 86.6979 196.354 87.0039C196.113 87.3066 195.992 87.707 195.992 88.2051C195.992 88.6901 196.108 89.0905 196.339 89.4062C196.573 89.7188 196.886 89.875 197.276 89.875ZM204.366 85.8857V86.6523H204.2C203.497 86.6654 202.937 86.8737 202.521 87.2773C202.104 87.681 201.863 88.249 201.798 88.9814C202.172 88.5518 202.683 88.3369 203.331 88.3369C203.95 88.3369 204.443 88.555 204.811 88.9912C205.182 89.4274 205.367 89.9906 205.367 90.6807C205.367 91.4131 205.167 91.999 204.767 92.4385C204.369 92.8779 203.836 93.0977 203.165 93.0977C202.485 93.0977 201.933 92.8372 201.51 92.3164C201.087 91.7923 200.875 91.1185 200.875 90.2949V89.9482C200.875 88.6396 201.153 87.6403 201.71 86.9502C202.27 86.2568 203.102 85.902 204.205 85.8857H204.366ZM203.18 89.0889C202.87 89.0889 202.586 89.1816 202.325 89.3672C202.065 89.5527 201.884 89.7855 201.783 90.0654V90.3975C201.783 90.9834 201.915 91.4554 202.179 91.8135C202.442 92.1715 202.771 92.3506 203.165 92.3506C203.572 92.3506 203.891 92.2008 204.122 91.9014C204.356 91.6019 204.474 91.2096 204.474 90.7246C204.474 90.2363 204.355 89.8424 204.117 89.543C203.883 89.2402 203.57 89.0889 203.18 89.0889ZM206.852 89.4355L207.213 85.8906H210.855V86.7256H207.979L207.765 88.6641C208.113 88.459 208.508 88.3564 208.951 88.3564C209.599 88.3564 210.113 88.5713 210.494 89.001C210.875 89.4274 211.065 90.0052 211.065 90.7344C211.065 91.4668 210.867 92.0446 210.47 92.4678C210.076 92.8877 209.524 93.0977 208.814 93.0977C208.186 93.0977 207.674 92.9235 207.276 92.5752C206.879 92.2269 206.653 91.7451 206.598 91.1299H207.452C207.507 91.5368 207.652 91.8444 207.887 92.0527C208.121 92.2578 208.43 92.3604 208.814 92.3604C209.234 92.3604 209.563 92.2171 209.801 91.9307C210.042 91.6442 210.162 91.2487 210.162 90.7441C210.162 90.2689 210.032 89.888 209.771 89.6016C209.514 89.3118 209.171 89.167 208.741 89.167C208.347 89.167 208.038 89.2533 207.813 89.4258L207.574 89.6211L206.852 89.4355Z" fill="black"/>
<line x1="183" y1="99.75" x2="366" y2="99.75" stroke="#B1ACAC" stroke-width="0.5"/>
<rect x="183" y="120" width="183" height="20" fill="white" fill-opacity="0.9"/>
<path d="M193.404 130.612H194.391V131.35H193.404V133H192.496V131.35H189.259V130.817L192.442 125.891H193.404V130.612ZM190.284 130.612H192.496V127.126L192.389 127.321L190.284 130.612ZM199.664 129.968C199.664 131.026 199.483 131.812 199.122 132.326C198.761 132.84 198.196 133.098 197.428 133.098C196.669 133.098 196.108 132.847 195.743 132.346C195.379 131.841 195.19 131.089 195.177 130.09V128.884C195.177 127.839 195.357 127.062 195.719 126.555C196.08 126.047 196.646 125.793 197.418 125.793C198.183 125.793 198.746 126.039 199.107 126.53C199.469 127.019 199.654 127.774 199.664 128.796V129.968ZM198.761 128.732C198.761 127.967 198.653 127.411 198.438 127.062C198.224 126.711 197.883 126.535 197.418 126.535C196.956 126.535 196.619 126.709 196.407 127.058C196.196 127.406 196.087 127.941 196.08 128.664V130.109C196.08 130.878 196.191 131.446 196.412 131.813C196.637 132.178 196.975 132.36 197.428 132.36C197.874 132.36 198.204 132.188 198.419 131.843C198.637 131.498 198.751 130.954 198.761 130.212V128.732ZM204.41 131.169C204.41 130.869 204.304 130.617 204.093 130.412C203.884 130.207 203.531 130.021 203.033 129.855C202.34 129.644 201.834 129.369 201.515 129.03C201.199 128.688 201.041 128.256 201.041 127.731C201.041 127.198 201.196 126.76 201.505 126.418C201.817 126.076 202.245 125.873 202.789 125.808V124.738H203.517V125.812C204.063 125.887 204.488 126.117 204.791 126.501C205.097 126.885 205.25 127.411 205.25 128.078H204.352C204.352 127.619 204.243 127.255 204.024 126.984C203.806 126.714 203.512 126.579 203.141 126.579C202.753 126.579 202.457 126.68 202.252 126.882C202.047 127.08 201.944 127.359 201.944 127.717C201.944 128.049 202.052 128.314 202.267 128.513C202.485 128.708 202.841 128.887 203.336 129.05C203.834 129.209 204.221 129.387 204.498 129.582C204.778 129.774 204.983 129.999 205.113 130.256C205.247 130.513 205.313 130.814 205.313 131.159C205.313 131.709 205.147 132.152 204.815 132.487C204.487 132.823 204.024 133.021 203.429 133.083V134.016H202.706V133.083C202.101 133.028 201.625 132.813 201.28 132.438C200.938 132.061 200.768 131.55 200.768 130.905H201.671C201.671 131.358 201.79 131.706 202.027 131.95C202.265 132.194 202.602 132.316 203.038 132.316C203.465 132.316 203.8 132.214 204.044 132.009C204.288 131.804 204.41 131.524 204.41 131.169Z" fill="black"/>
<line x1="183" y1="139.75" x2="366" y2="139.75" stroke="#B1ACAC" stroke-width="0.5"/>
<rect x="183" y="100" width="183" height="20" fill="#E1E1E1"/>
<path d="M193.404 110.612H194.391V111.35H193.404V113H192.496V111.35H189.259V110.817L192.442 105.891H193.404V110.612ZM190.284 110.612H192.496V107.126L192.389 107.321L190.284 110.612ZM195.318 112.526C195.318 112.37 195.364 112.24 195.455 112.136C195.549 112.032 195.689 111.979 195.875 111.979C196.061 111.979 196.201 112.032 196.295 112.136C196.393 112.24 196.441 112.37 196.441 112.526C196.441 112.676 196.393 112.801 196.295 112.902C196.201 113.003 196.061 113.054 195.875 113.054C195.689 113.054 195.549 113.003 195.455 112.902C195.364 112.801 195.318 112.676 195.318 112.526ZM198.258 109.436L198.619 105.891H202.262V106.726H199.386L199.171 108.664C199.519 108.459 199.915 108.356 200.357 108.356C201.005 108.356 201.52 108.571 201.9 109.001C202.281 109.427 202.472 110.005 202.472 110.734C202.472 111.467 202.273 112.045 201.876 112.468C201.482 112.888 200.93 113.098 200.221 113.098C199.592 113.098 199.08 112.924 198.683 112.575C198.285 112.227 198.059 111.745 198.004 111.13H198.858C198.914 111.537 199.059 111.844 199.293 112.053C199.527 112.258 199.837 112.36 200.221 112.36C200.641 112.36 200.969 112.217 201.207 111.931C201.448 111.644 201.568 111.249 201.568 110.744C201.568 110.269 201.438 109.888 201.178 109.602C200.921 109.312 200.577 109.167 200.147 109.167C199.754 109.167 199.444 109.253 199.22 109.426L198.98 109.621L198.258 109.436ZM207.271 110.612H208.258V111.35H207.271V113H206.363V111.35H203.126V110.817L206.31 105.891H207.271V110.612ZM204.151 110.612H206.363V107.126L206.256 107.321L204.151 110.612ZM211.432 110.314C211.432 109.491 211.622 108.837 212.003 108.352C212.384 107.863 212.888 107.619 213.517 107.619C214.161 107.619 214.664 107.847 215.025 108.303L215.069 107.717H215.895V112.873C215.895 113.557 215.691 114.095 215.284 114.489C214.881 114.883 214.337 115.08 213.653 115.08C213.272 115.08 212.9 114.999 212.535 114.836C212.171 114.673 211.892 114.45 211.7 114.167L212.169 113.625C212.556 114.104 213.03 114.343 213.59 114.343C214.029 114.343 214.371 114.219 214.615 113.972C214.863 113.724 214.986 113.376 214.986 112.927V112.473C214.625 112.889 214.132 113.098 213.507 113.098C212.888 113.098 212.387 112.849 212.003 112.351C211.622 111.853 211.432 111.174 211.432 110.314ZM212.34 110.417C212.34 111.013 212.462 111.481 212.706 111.823C212.95 112.162 213.292 112.331 213.731 112.331C214.301 112.331 214.719 112.072 214.986 111.555V109.143C214.71 108.638 214.295 108.386 213.741 108.386C213.302 108.386 212.958 108.557 212.711 108.898C212.464 109.24 212.34 109.746 212.34 110.417Z" fill="black"/>
</svg>
